<svg xmlns="http://www.w3.org/2000/svg" xmlns:xlink="http://www.w3.org/1999/xlink" width="110" height="37" viewBox="0 0 110 37">
  <defs>
    <clipPath id="clip-Payment_method_1">
      <rect width="110" height="37"/>
    </clipPath>
  </defs>
  <g id="Payment_method_1" data-name="Payment method – 1" clip-path="url(#clip-Payment_method_1)">
    <g id="Groupe_1520" data-name="Groupe 1520" transform="translate(7467.802 -2218.201)">
      <g id="paypal_3_" data-name="paypal (3)" transform="translate(-7461.182 2220.291)">
        <path id="Tracé_1441" data-name="Tracé 1441" d="M350.726,221.2h-2.262a.442.442,0,0,0-.333.266l-.931,5.854a.176.176,0,0,0,.2.2h1.2a.176.176,0,0,0,.2-.2l.266-1.663a.3.3,0,0,1,.333-.266h.732a2.318,2.318,0,0,0,2.594-2.2,1.744,1.744,0,0,0-.266-1.463,2.683,2.683,0,0,0-1.729-.532m.266,2.2c-.133.8-.732.8-1.33.8h-.4l.266-1.53c0-.067.067-.133.2-.133h.133c.4,0,.8,0,1,.266.133.066.133.266.133.6" transform="translate(-318.33 -218.406)" fill="#139ad6"/>
        <g id="Groupe_1518" data-name="Groupe 1518" transform="translate(12.572 2.794)">
          <path id="Tracé_1442" data-name="Tracé 1442" d="M154.726,221.2h-2.262a.442.442,0,0,0-.333.266l-.931,5.854a.176.176,0,0,0,.2.2h1.064a.442.442,0,0,0,.333-.266l.266-1.6a.3.3,0,0,1,.333-.266h.732a2.318,2.318,0,0,0,2.594-2.2,1.744,1.744,0,0,0-.266-1.463,2.557,2.557,0,0,0-1.73-.532m.266,2.2c-.133.8-.732.8-1.33.8h-.333l.266-1.53c0-.067.066-.133.2-.133h.133c.4,0,.8,0,1,.266a.712.712,0,0,1,.067.6" transform="translate(-151.2 -221.2)" fill="#263b80"/>
          <path id="Tracé_1443" data-name="Tracé 1443" d="M219.063,245.333H218c-.067,0-.2.067-.2.133l-.067.333-.067-.133a1.565,1.565,0,0,0-1.264-.466,2.556,2.556,0,0,0-2.461,2.2,1.983,1.983,0,0,0,.4,1.663,1.676,1.676,0,0,0,1.4.532,2.126,2.126,0,0,0,1.53-.6l-.067.333a.176.176,0,0,0,.2.2h1a.442.442,0,0,0,.333-.266l.6-3.725c-.067-.067-.2-.2-.266-.2m-1.53,2.129a1.287,1.287,0,0,1-1.264,1.064,1.064,1.064,0,0,1-.732-.266,1.419,1.419,0,0,1-.2-.8,1.186,1.186,0,0,1,1.929-.8,1.161,1.161,0,0,1,.266.8" transform="translate(-208.685 -243.204)" fill="#263b80"/>
        </g>
        <path id="Tracé_1444" data-name="Tracé 1444" d="M414.263,245.333H413.2c-.066,0-.2.067-.2.133l-.067.333-.066-.133a1.565,1.565,0,0,0-1.264-.466,2.556,2.556,0,0,0-2.461,2.2,1.983,1.983,0,0,0,.4,1.663,1.676,1.676,0,0,0,1.4.532,2.126,2.126,0,0,0,1.53-.6l-.067.333a.176.176,0,0,0,.2.2h1a.442.442,0,0,0,.333-.266l.6-3.725c-.067-.067-.133-.2-.266-.2m-1.53,2.129a1.287,1.287,0,0,1-1.264,1.064,1.064,1.064,0,0,1-.732-.266,1.419,1.419,0,0,1-.2-.8,1.186,1.186,0,0,1,1.929-.8.763.763,0,0,1,.266.8" transform="translate(-375.082 -240.411)" fill="#139ad6"/>
        <path id="Tracé_1445" data-name="Tracé 1445" d="M289.122,246.8h-1.131a.346.346,0,0,0-.266.133l-1.463,2.262-.665-2.129a.307.307,0,0,0-.333-.2H284.2c-.133,0-.2.133-.2.266l1.2,3.526-1.131,1.6c-.067.133,0,.333.133.333h1.064a.346.346,0,0,0,.266-.133l3.659-5.255c.2-.2.067-.4-.066-.4" transform="translate(-260.385 -241.878)" fill="#263b80"/>
        <path id="Tracé_1446" data-name="Tracé 1446" d="M476.131,221.845l-.931,5.987a.176.176,0,0,0,.2.2h.931a.442.442,0,0,0,.333-.266l.931-5.854a.176.176,0,0,0-.2-.2h-1.064c-.067-.067-.133,0-.2.133" transform="translate(-435.687 -218.852)" fill="#139ad6"/>
        <path id="Tracé_1447" data-name="Tracé 1447" d="M7.65,188.4a3.286,3.286,0,0,0-2.528-.8H1.8a.571.571,0,0,0-.466.4L0,196.713a.3.3,0,0,0,.266.333H2.328l.532-3.259v.133a.571.571,0,0,1,.466-.4h1a3.512,3.512,0,0,0,3.858-2.993v-.2h0A2.323,2.323,0,0,0,7.65,188.4" transform="translate(0 -187.6)" fill="#263b80"/>
        <path id="Tracé_1448" data-name="Tracé 1448" d="M31.587,220.4h0v.2c-.466,2.262-1.929,2.993-3.858,2.993h-1a.571.571,0,0,0-.466.4L25.6,228.05a.244.244,0,0,0,.266.266H27.6a.373.373,0,0,0,.4-.333v-.066l.333-2.062v-.133a.373.373,0,0,1,.4-.333h.266a2.977,2.977,0,0,0,3.326-2.661,2.445,2.445,0,0,0-.333-2,.681.681,0,0,0-.4-.333" transform="translate(-23.471 -217.673)" fill="#139ad6"/>
        <path id="Tracé_1449" data-name="Tracé 1449" d="M39.189,215.8c-.067,0-.133-.067-.2-.067a.244.244,0,0,1-.2-.067,3.515,3.515,0,0,0-.865-.066H35.331a.244.244,0,0,0-.2.066.366.366,0,0,0-.2.333l-.532,3.459v.133a.571.571,0,0,1,.466-.4h1a3.512,3.512,0,0,0,3.858-2.993.244.244,0,0,1,.067-.2c-.133-.067-.2-.133-.333-.133-.2-.067-.2-.067-.266-.067" transform="translate(-31.54 -213.272)" fill="#232c65"/>
      </g>
      <g id="visa" transform="translate(-7461.182 2237.106)">
        <path id="Tracé_1450" data-name="Tracé 1450" d="M184.8,187.269l1.221-6.869h1.908l-1.183,6.869Z" transform="translate(-175.985 -180.171)" fill="#3c58bf"/>
        <path id="Tracé_1451" data-name="Tracé 1451" d="M184.8,187.269l1.565-6.869h1.565l-1.183,6.869Z" transform="translate(-175.985 -180.171)" fill="#293688"/>
        <path id="Tracé_1452" data-name="Tracé 1452" d="M253.839,175.905a4.841,4.841,0,0,0-1.755-.305c-1.908,0-3.282.954-3.282,2.328,0,1.03.954,1.565,1.717,1.908s.992.572.992.878c0,.458-.611.687-1.145.687a4.148,4.148,0,0,1-1.832-.382l-.267-.114L248,182.469a6.187,6.187,0,0,0,2.175.382c2.023,0,3.358-.954,3.358-2.4,0-.8-.5-1.412-1.641-1.908-.687-.343-1.107-.534-1.107-.878,0-.305.343-.611,1.107-.611a3.5,3.5,0,0,1,1.45.267l.191.076.305-1.488Z" transform="translate(-236.17 -175.6)" fill="#3c58bf"/>
        <path id="Tracé_1453" data-name="Tracé 1453" d="M253.839,175.905a4.841,4.841,0,0,0-1.755-.305c-1.908,0-2.938.954-2.938,2.328a2,2,0,0,0,1.374,1.908c.763.343.992.572.992.878,0,.458-.611.687-1.145.687a4.148,4.148,0,0,1-1.832-.382l-.267-.114L248,182.469a6.187,6.187,0,0,0,2.175.382c2.023,0,3.358-.954,3.358-2.4,0-.8-.5-1.412-1.641-1.908-.687-.343-1.107-.534-1.107-.878,0-.305.343-.611,1.107-.611a3.5,3.5,0,0,1,1.45.267l.191.076.305-1.488Z" transform="translate(-236.17 -175.6)" fill="#293688"/>
        <path id="Tracé_1454" data-name="Tracé 1454" d="M362.254,180.4c-.458,0-.8.038-.992.5l-2.862,6.373h2.061l.382-1.145h2.442l.229,1.145h1.832l-1.6-6.869Zm-.878,4.579c.114-.343.763-2.023.763-2.023s.153-.42.267-.687l.115.649s.382,1.717.458,2.1h-1.6Z" transform="translate(-341.304 -180.171)" fill="#3c58bf"/>
        <path id="Tracé_1455" data-name="Tracé 1455" d="M362.712,180.4c-.458,0-.8.038-.992.5l-3.32,6.373h2.061l.382-1.145h2.442l.229,1.145h1.832l-1.6-6.869Zm-1.336,4.579c.153-.382.763-2.023.763-2.023s.153-.42.267-.687l.115.649s.382,1.717.458,2.1h-1.6Z" transform="translate(-341.304 -180.171)" fill="#293688"/>
        <path id="Tracé_1456" data-name="Tracé 1456" d="M54.062,185.97l-.191-.992a5.532,5.532,0,0,0-2.671-3.015l1.717,6.106h2.061l3.091-6.869H56.008Z" transform="translate(-48.758 -180.933)" fill="#3c58bf"/>
        <path id="Tracé_1457" data-name="Tracé 1457" d="M54.062,185.97l-.191-.992a5.532,5.532,0,0,0-2.671-3.015l1.717,6.106h2.061l3.091-6.869H56.39Z" transform="translate(-48.758 -180.933)" fill="#293688"/>
        <path id="Tracé_1458" data-name="Tracé 1458" d="M0,180.4l.343.076a6.436,6.436,0,0,1,4.77,3.74l-.687-3.244c-.114-.458-.458-.572-.878-.572Z" transform="translate(0 -180.171)" fill="#ffbc00"/>
        <path id="Tracé_1459" data-name="Tracé 1459" d="M0,180.4H0c2.442.572,4.465,2.061,5.114,3.778l-.649-2.709a.931.931,0,0,0-.916-.725Z" transform="translate(0 -180.171)" fill="#f7981d"/>
        <path id="Tracé_1460" data-name="Tracé 1460" d="M0,180.4H0c2.442.572,4.465,2.061,5.114,3.778l-.458-1.488a1.346,1.346,0,0,0-.8-1.107Z" transform="translate(0 -180.171)" fill="#ed7c00"/>
        <g id="Groupe_1519" data-name="Groupe 1519" transform="translate(2.48 0.992)">
          <path id="Tracé_1461" data-name="Tracé 1461" d="M56.732,200.216l-1.3-1.3-.611,1.45-.153-.954A5.532,5.532,0,0,0,52,196.4l1.717,6.106h2.061Z" transform="translate(-52 -196.4)" fill="#051244"/>
          <path id="Tracé_1462" data-name="Tracé 1462" d="M186.746,290.879l-1.641-1.679-.305,1.679Z" transform="translate(-178.465 -284.773)" fill="#051244"/>
          <path id="Tracé_1463" data-name="Tracé 1463" d="M251.32,274.8h0c.153.153.229.267.191.42,0,.458-.611.687-1.145.687a4.147,4.147,0,0,1-1.832-.382l-.267-.115L248,276.975a6.187,6.187,0,0,0,2.175.382,3.778,3.778,0,0,0,2.786-.954Z" transform="translate(-238.65 -271.06)" fill="#051244"/>
          <path id="Tracé_1464" data-name="Tracé 1464" d="M364,224.6h1.794l.382-1.145h2.442l.229,1.145h1.832l-.649-2.786-2.29-2.213.115.611s.382,1.717.458,2.1h-1.6c.153-.382.763-2.023.763-2.023s.153-.42.267-.687" transform="translate(-349.117 -218.493)" fill="#051244"/>
        </g>
      </g>
      <g id="layer1" transform="translate(-7429.415 2234.68)">
        <g id="g10305" transform="translate(0 0)">
          <path id="path2268" d="M132.961,7.943a6.069,6.069,0,0,1-12.138,0v0a6.069,6.069,0,1,1,12.138,0Z" transform="translate(-112.682 -1.872)" fill="#f90"/>
          <path id="path1350" d="M8,1.895A6.069,6.069,0,1,0,12.12,12.452h0a6.126,6.126,0,0,0,.616-.65H11.494a5.928,5.928,0,0,1-.452-.625h2.145a6.079,6.079,0,0,0,.353-.65H10.687a5.986,5.986,0,0,1-.254-.638h3.359a6.1,6.1,0,0,0,.172-3.225h-3.71a6.051,6.051,0,0,1,.173-.638h3.361a6.07,6.07,0,0,0-.262-.65H10.687a5.823,5.823,0,0,1,.348-.638h2.143a6.082,6.082,0,0,0-.471-.65H11.512a5.633,5.633,0,0,1,.609-.613A6.048,6.048,0,0,0,8.036,1.895Z" transform="translate(-1.967 -1.893)" fill="#c00"/>
          <path id="use9412" d="M286.472,136.82a.2.2,0,0,1,.1.025.179.179,0,0,1,.073.073.2.2,0,0,1,0,.2.182.182,0,0,1-.073.073.2.2,0,0,1-.2,0,.185.185,0,0,1-.073-.073.2.2,0,0,1-.026-.1.2.2,0,0,1,.026-.1.182.182,0,0,1,.073-.073.2.2,0,0,1,.1-.025m0,.033a.167.167,0,0,0-.081.021.15.15,0,0,0-.061.061.163.163,0,0,0-.022.082.167.167,0,0,0,.022.081.157.157,0,0,0,.061.061.164.164,0,0,0,.163,0,.155.155,0,0,0,.061-.061.166.166,0,0,0,.021-.081.163.163,0,0,0-.022-.082.148.148,0,0,0-.061-.061.165.165,0,0,0-.08-.021m-.086.272v-.211h.073a.17.17,0,0,1,.054.006.052.052,0,0,1,.027.02.054.054,0,0,1,.01.031.056.056,0,0,1-.017.04.065.065,0,0,1-.044.019.062.062,0,0,1,.018.011.229.229,0,0,1,.031.042l.026.041h-.042l-.019-.033a.168.168,0,0,0-.036-.049.044.044,0,0,0-.027-.007h-.02v.09h-.034m.034-.119h.041a.067.067,0,0,0,.04-.009.029.029,0,0,0,.011-.023.028.028,0,0,0-.005-.017.032.032,0,0,0-.015-.011.105.105,0,0,0-.034,0h-.039v.064" transform="translate(-266.802 -127.576)" fill="#fcb340"/>
        </g>
        <g id="g16480" transform="translate(0.387 4.503)">
          <g id="g13802" transform="translate(0 0.128)">
            <path id="path13804" d="M120.131,61.244l.081-.549c-.044,0-.109.019-.167.019-.225,0-.253-.12-.235-.208l.222-1.1h.342l.07-.624h-.322l.066-.378h-.674c-.014.014-.381,2.125-.381,2.382a.479.479,0,0,0,.515.547A1.7,1.7,0,0,0,120.131,61.244Z" transform="translate(-112.435 -58.063)" fill="#006"/>
            <path id="path13806" d="M136.706,64.356a1.014,1.014,0,0,0,1.116,1.13,1.943,1.943,0,0,0,.723-.11l.114-.623a2.341,2.341,0,0,1-.726.163c-.694,0-.572-.517-.572-.517l1.333,0a4.642,4.642,0,0,0,.085-.589.886.886,0,0,0-.941-.949C137.187,62.865,136.706,63.565,136.706,64.356Zm1.133-.913c.365,0,.3.41.3.443h-.717C137.419,63.844,137.487,63.444,137.839,63.444Z" transform="translate(-128.805 -62.223)" fill="#006"/>
            <path id="path13808" d="M188.994,56.672l.116-.7a1.556,1.556,0,0,1-.535.159.64.64,0,0,1-.642-.726c0-.763.394-1.183.834-1.183a1.151,1.151,0,0,1,.594.185l.105-.684a1.285,1.285,0,0,0-.648-.227c-1.01,0-1.588.7-1.588,1.915a1.189,1.189,0,0,0,1.2,1.354A2.988,2.988,0,0,0,188.994,56.672Z" transform="translate(-175.867 -53.492)" fill="#006"/>
            <path id="path13810" d="M65.5,63.012a2.232,2.232,0,0,0-.783.142l-.094.557a2.04,2.04,0,0,1,.7-.114c.241,0,.417.027.417.223a.414.414,0,0,1-.021.163s-.19-.016-.278-.016c-.631,0-1.146.239-1.146.958a.613.613,0,0,0,.624.7.8.8,0,0,0,.647-.289l-.005.239h.569l.254-1.78A.764.764,0,0,0,65.5,63.012Zm.1,1.445c.012.109-.028.622-.417.622a.235.235,0,0,1-.253-.244c0-.177.1-.389.57-.389C65.607,64.446,65.579,64.454,65.6,64.457Z" transform="translate(-61.357 -62.36)" fill="#006"/>
            <path id="path13812" d="M93.753,65.662c.146,0,.978.037.978-.822,0-.8-.77-.644-.77-.967,0-.16.126-.211.355-.211.091,0,.442.029.442.029l.081-.571a3.014,3.014,0,0,0-.6-.051c-.478,0-.963.191-.963.844,0,.74.809.666.809.977,0,.208-.226.225-.4.225a2.112,2.112,0,0,1-.574-.1l-.086.565A2.057,2.057,0,0,0,93.753,65.662Z" transform="translate(-88.119 -62.414)" fill="#006"/>
            <path id="path13814" d="M265.968,55.455l-.117.871a.854.854,0,0,0-.624-.336c-.716,0-1.086.714-1.086,1.534,0,.529.263,1.048.8,1.048a.808.808,0,0,0,.6-.27l-.028.231h.629l.494-3.073Zm-.278,1.692c0,.341-.169.8-.519.8-.233,0-.342-.2-.342-.5,0-.5.225-.832.509-.832C265.571,56.611,265.69,56.771,265.69,57.147Z" transform="translate(-247.511 -55.321)" fill="#006"/>
            <path id="path13816" d="M22,58.469l.393-2.32.058,2.32H22.9l.831-2.32-.368,2.32h.662l.509-3.077-1.051-.008-.625,1.884-.017-1.876h-.963l-.517,3.077Z" transform="translate(-21.362 -55.254)" fill="#006"/>
            <path id="path13818" d="M167.076,63.376c.188-1.07.255-1.914.8-1.739a3.727,3.727,0,0,1,.352-.949s-.027-.04-.2-.04c-.289,0-.676.587-.676.587l.058-.363h-.6l-.4,2.5h.664Z" transform="translate(-156.476 -60.157)" fill="#006"/>
            <g id="use14699" transform="translate(13.279 0.652)">
              <path id="path13810_1_" d="M-628.882,63.012a2.232,2.232,0,0,0-.783.142l-.094.557a2.041,2.041,0,0,1,.7-.114c.241,0,.417.027.417.223a.416.416,0,0,1-.021.163s-.19-.016-.278-.016c-.631,0-1.146.239-1.146.958a.613.613,0,0,0,.624.7.8.8,0,0,0,.647-.289l-.005.239h.569l.254-1.78A.764.764,0,0,0-628.882,63.012Zm.1,1.445c.012.109-.028.622-.417.622a.235.235,0,0,1-.253-.244c0-.177.1-.389.57-.389C-628.774,64.446-628.8,64.454-628.784,64.457Z" transform="translate(630.083 -63.012)" fill="#006"/>
            </g>
            <path id="use14701" d="M246.239,66.424c.1-.787.294-1.892.8-1.739.079-.414,0-.413-.167-.413a3.022,3.022,0,0,0-.354.011l.058-.363h-.6l-.4,2.5h.664Z" transform="translate(-230.217 -63.205)" fill="#006"/>
          </g>
          <g id="g10289" transform="translate(0.189)">
            <path id="path4157" d="M108.844,74.376l.081-.549c-.044,0-.109.019-.167.019-.225,0-.25-.12-.235-.208l.182-1.121h.342l.083-.608h-.322l.066-.378h-.646c-.014.014-.381,2.125-.381,2.382a.48.48,0,0,0,.515.547A1.7,1.7,0,0,0,108.844,74.376Z" transform="translate(-101.168 -71.263)" fill="#fff"/>
            <path id="path4155" d="M125.423,77.487a1.014,1.014,0,0,0,1.116,1.13,1.645,1.645,0,0,0,.683-.106l.114-.623a2.012,2.012,0,0,1-.686.159c-.694,0-.572-.517-.572-.517h1.313a4.648,4.648,0,0,0,.085-.589.866.866,0,0,0-.921-.945C125.9,76,125.423,76.7,125.423,77.487Zm1.133-.913c.365,0,.3.41.3.443h-.717C126.136,76.975,126.2,76.575,126.556,76.575Z" transform="translate(-117.542 -75.422)" fill="#fff"/>
            <path id="path4151" d="M178.2,70.73l.116-.7a1.554,1.554,0,0,1-.535.159.64.64,0,0,1-.642-.726c0-.763.394-1.183.833-1.183a1.151,1.151,0,0,1,.594.185l.105-.685a2.32,2.32,0,0,0-.728-.159c-.746,0-1.472.647-1.472,1.863,0,.806.392,1.338,1.163,1.338A2.981,2.981,0,0,0,178.2,70.73Z" transform="translate(-165.097 -67.618)" fill="#fff"/>
            <path id="path4149" d="M54.215,76.143a2.232,2.232,0,0,0-.783.142l-.094.557a2.04,2.04,0,0,1,.7-.114c.241,0,.417.027.417.223a.413.413,0,0,1-.022.163s-.19-.016-.278-.016c-.559,0-1.146.239-1.146.958a.613.613,0,0,0,.624.7.841.841,0,0,0,.663-.3l-.021.247h.569l.254-1.78A.764.764,0,0,0,54.215,76.143Zm.138,1.449c.012.109-.068.618-.457.618a.235.235,0,0,1-.253-.244c0-.177.1-.389.57-.389A.411.411,0,0,1,54.353,77.592Z" transform="translate(-50.093 -75.559)" fill="#fff"/>
            <path id="path4145" d="M82.47,78.793c.146,0,.978.037.978-.822,0-.8-.77-.644-.77-.967,0-.161.126-.211.355-.211.091,0,.442.029.442.029l.082-.571a3.013,3.013,0,0,0-.6-.051c-.478,0-.963.191-.963.844,0,.74.809.666.809.977,0,.208-.226.225-.4.225a2.11,2.11,0,0,1-.574-.1l-.086.565A2.051,2.051,0,0,0,82.47,78.793Z" transform="translate(-76.856 -75.613)" fill="#fff"/>
            <path id="path4139" d="M254.707,68.654l-.139.865a.854.854,0,0,0-.624-.336c-.592,0-1.086.714-1.086,1.534,0,.529.263,1.048.8,1.048a.808.808,0,0,0,.6-.27l-.028.23h.629l.494-3.073Zm-.3,1.686c0,.341-.169.8-.519.8-.233,0-.342-.2-.342-.5,0-.5.225-.832.509-.832C254.288,69.8,254.407,69.964,254.407,70.34Z" transform="translate(-236.248 -68.582)" fill="#fff"/>
            <path id="path4133" d="M10.993,71.709l.393-2.32.058,2.32h.445l.831-2.32-.368,2.32h.662l.509-3.077H12.5l-.637,1.888-.033-1.888h-.943l-.517,3.077Z" transform="translate(-10.37 -68.563)" fill="#fff"/>
            <path id="path4131" d="M155.794,79.116c.188-1.07.223-1.938.672-1.779a2.487,2.487,0,0,1,.24-.749.682.682,0,0,0-.125-.008c-.289,0-.5.4-.5.4l.058-.363h-.6l-.4,2.5Z" transform="translate(-145.214 -75.965)" fill="#fff"/>
            <g id="use8523" transform="translate(13.396 0.584)">
              <path id="path4149_1_" d="M-639.862,76.143a2.233,2.233,0,0,0-.783.142l-.094.557a2.04,2.04,0,0,1,.7-.114c.241,0,.417.027.417.223a.415.415,0,0,1-.021.163s-.19-.016-.278-.016c-.559,0-1.146.239-1.146.958a.613.613,0,0,0,.624.7.84.84,0,0,0,.663-.3l-.021.247h.569l.254-1.78A.764.764,0,0,0-639.862,76.143Zm.139,1.449c.012.109-.068.618-.457.618a.235.235,0,0,1-.253-.244c0-.177.1-.389.57-.389A.414.414,0,0,1-639.723,77.592Z" transform="translate(641.063 -76.143)" fill="#fff"/>
            </g>
            <g id="use8525" transform="translate(15.341 0.614)">
              <path id="path4131_1_" d="M-207.286,79.116c.188-1.07.223-1.938.672-1.779a2.491,2.491,0,0,1,.24-.749.682.682,0,0,0-.125-.008c-.289,0-.5.4-.5.4l.058-.363h-.6l-.4,2.5Z" transform="translate(207.95 -76.579)" fill="#fff"/>
            </g>
            <path id="text9407" d="M286.433,107.975a.2.2,0,0,1,.1.026.178.178,0,0,1,.073.073.2.2,0,0,1,0,.2.182.182,0,0,1-.073.073.2.2,0,0,1-.2,0,.183.183,0,0,1-.072-.073.2.2,0,0,1,0-.2.18.18,0,0,1,.073-.073.2.2,0,0,1,.1-.026m0,.032a.166.166,0,0,0-.081.021.15.15,0,0,0-.061.061.164.164,0,0,0,0,.163.156.156,0,0,0,.061.061.165.165,0,0,0,.163,0,.155.155,0,0,0,.061-.061.164.164,0,0,0,0-.163.148.148,0,0,0-.061-.061.165.165,0,0,0-.08-.021m-.086.272v-.211h.073a.171.171,0,0,1,.054.006.052.052,0,0,1,.027.02.054.054,0,0,1,.01.031.056.056,0,0,1-.017.04.024.024,0,1,0-.026.03.253.253,0,0,1,.031.042l.026.041h-.042l-.019-.033a.171.171,0,0,0-.036-.049.044.044,0,0,0-.027-.007h-.02v.09h-.034m.034-.119h.041a.066.066,0,0,0,.04-.009.029.029,0,0,0,.011-.023.028.028,0,0,0-.005-.017.032.032,0,0,0-.015-.011.107.107,0,0,0-.034,0h-.039v.064" transform="translate(-267.34 -105.211)" fill="#fff"/>
          </g>
        </g>
      </g>
      <g id="layer1-2" data-name="layer1" transform="translate(-7404.736 2234.222)">
        <path id="path618" d="M468.321,642.871a6.529,6.529,0,1,0-4.378,1.689,6.505,6.505,0,0,0,4.378-1.689" transform="translate(-457.41 -631.504)" fill="#0066cb"/>
        <path id="path620" d="M520.205,650.9a6.53,6.53,0,0,0,0-9.678" transform="translate(-509.294 -639.537)" fill="#0066cb"/>
        <path id="path622" d="M520.205,650.9a6.53,6.53,0,0,0,0-9.678" transform="translate(-509.294 -639.537)" fill="none" stroke="#0066cb" stroke-width="0.31"/>
        <path id="path624" d="M515.083,631.505a6.5,6.5,0,0,0-4.387,1.689,7.1,7.1,0,0,0-.66.692h1.32a5.382,5.382,0,0,1,.5.691h-2.31q-.2.332-.379.691h3.067a5.789,5.789,0,0,1,.272.692H508.89a5.487,5.487,0,0,0-.194.691h4a6.481,6.481,0,0,1,.146,1.382,6.376,6.376,0,0,1-.34,2.074H508.89a5.789,5.789,0,0,0,.272.692h3.067a6.121,6.121,0,0,1-.379.691h-2.31a6.548,6.548,0,0,0,.5.691h1.32a7.093,7.093,0,0,1-.66.692,6.528,6.528,0,1,0,4.387-11.367" transform="translate(-499.785 -631.505)" fill="#cc0001"/>
        <path id="path626" d="M578.156,689h.029c.01,0,.019,0,.019,0s.02-.013.02-.021-.01-.016-.02-.02-.019,0-.019,0h-.029V689Zm0,.106h-.039v-.186h.078a.09.09,0,0,1,.048.009.072.072,0,0,1,.019.047.048.048,0,0,1-.029.047l.029.082h-.048l-.019-.074h-.039v.074Zm.029.068a.161.161,0,1,0,0-.321.161.161,0,0,0,0,.321Zm-.214-.16a.214.214,0,1,1,.214.211.213.213,0,0,1-.214-.211" transform="translate(-557.024 -678.851)" fill="#231f20"/>
        <path id="path628" d="M472.2,663.791h-.825l.485-2.545-1.116,2.545h-.68l-.136-2.53-.544,2.53h-.747l.631-3.309h1.291l.019,2.049.893-2.049h1.369l-.64,3.309" transform="translate(-466.687 -655.446)" fill="#231f20"/>
        <path id="path630" d="M535.561,663.755a2.119,2.119,0,0,1-.582.088c-.417,0-.641-.208-.641-.591a1.062,1.062,0,0,1,.019-.242l.049-.264.039-.212.379-2.055h.806l-.116.618h.417l-.116.654H535.4l-.214,1.123a.545.545,0,0,0-.01.111c0,.139.078.2.272.2a.773.773,0,0,0,.223-.025l-.107.6" transform="translate(-520.972 -655.445)" fill="#231f20"/>
        <path id="path632" d="M521.354,664.6c0,.341.184.574.621.75.33.135.388.175.388.3,0,.169-.146.244-.475.244a2.625,2.625,0,0,1-.738-.107l-.107.622.029.005.155.028c.048.008.117.016.214.024.194.015.349.023.456.023.864,0,1.262-.285,1.262-.9a.743.743,0,0,0-.573-.749c-.349-.137-.388-.166-.388-.292,0-.146.136-.22.4-.22a5.23,5.23,0,0,1,.592.041l.117-.623a6.4,6.4,0,0,0-.718-.053c-.922,0-1.242.414-1.233.91" transform="translate(-509.987 -658.1)" fill="#231f20"/>
        <path id="path634" d="M492.973,665.239a1.476,1.476,0,0,0-.185-.012c-.456,0-.689.138-.689.409a.266.266,0,0,0,.291.274.617.617,0,0,0,.582-.672Zm.553,1.2h-.68l.019-.28a1.109,1.109,0,0,1-.854.326.7.7,0,0,1-.748-.735c0-.656.524-1.038,1.427-1.038a2.734,2.734,0,0,1,.33.021.533.533,0,0,0,.039-.175c0-.179-.146-.245-.524-.245a3.027,3.027,0,0,0-.68.076l-.107.028-.078.017.116-.6a3.674,3.674,0,0,1,.971-.143c.7,0,1.068.273,1.068.79a2.479,2.479,0,0,1-.068.533l-.165.955-.029.171-.019.137-.019.094v.073" transform="translate(-485.382 -658.094)" fill="#231f20"/>
        <path id="path636" d="M508.723,664.746c0-.056.01-.1.01-.137,0-.219-.146-.348-.388-.348a.527.527,0,0,0-.514.482l.893,0Zm.4,1.6a3.161,3.161,0,0,1-.835.109c-.912,0-1.378-.414-1.378-1.205a1.476,1.476,0,0,1,1.417-1.6.973.973,0,0,1,1.1.978,2.317,2.317,0,0,1-.107.664H507.7a.306.306,0,0,0-.01.085c0,.312.243.471.718.471a2.156,2.156,0,0,0,.845-.17l-.136.673" transform="translate(-498.308 -658.062)" fill="#231f20"/>
        <path id="path638" d="M555.093,664.821c0-.281-.116-.548-.446-.548-.417,0-.67.491-.67.923,0,.365.175.61.466.6a.8.8,0,0,0,.621-.659A1.659,1.659,0,0,0,555.093,664.821Zm.825.322a1.427,1.427,0,0,1-1.582,1.292,1.149,1.149,0,0,1-1.281-1.24,1.5,1.5,0,0,1,1.592-1.6,1.173,1.173,0,0,1,1.291,1.215,1.886,1.886,0,0,1-.02.334" transform="translate(-536.437 -658.018)" fill="#231f20"/>
        <path id="path640" d="M570.224,676.208h.029a.056.056,0,0,0,.019,0c.01,0,.01-.013.01-.021s0-.015-.01-.018-.019,0-.029,0h-.019v.048Zm0,.1h-.039v-.186h.078a.117.117,0,0,1,.049.011.069.069,0,0,1,.019.046.05.05,0,0,1-.029.048l.029.081h-.049l-.029-.073h-.029v.073Zm.029.068a.16.16,0,0,0,0-.32.16.16,0,1,0,0,.32Zm-.213-.161a.214.214,0,1,1,.214.211.213.213,0,0,1-.214-.211" transform="translate(-550.47 -668.277)" fill="#fff"/>
        <path id="path642" d="M473.466,662.69h-.815l.485-2.544-1.116,2.544h-.738l-.136-2.528-.485,2.528h-.738l.631-3.309h1.271l.058,2.05.9-2.05h1.32l-.64,3.309" transform="translate(-467.749 -654.537)" fill="#fff"/>
        <path id="path644" d="M536.734,662.659a2.123,2.123,0,0,1-.583.087c-.417,0-.641-.209-.641-.591a2.188,2.188,0,0,1,.019-.241l.049-.264.039-.214.379-2.055h.806l-.117.618h.417l-.117.655h-.417l-.214,1.123a.536.536,0,0,0-.01.112c0,.139.087.2.281.2a.742.742,0,0,0,.213-.025l-.106.6" transform="translate(-521.941 -654.537)" fill="#fff"/>
        <path id="path646" d="M544.916,664.638l-.019-.085.165-.422a.228.228,0,0,1-.058-.008c-.049-.009-.068-.015-.078-.015a.329.329,0,0,0-.077-.006c-.272,0-.456.118-.709.436l.088-.479h-.845l-.5,2.688h.806c.107-.617.155-.968.223-1.26.107-.484.466-.7.728-.655a.4.4,0,0,1,.087.02l.048.018.136-.233" transform="translate(-528.035 -658.403)" fill="#231f20"/>
        <path id="path648" d="M546.166,662.821a.5.5,0,0,0-.087-.029c-.039-.009-.068-.015-.068-.016a.635.635,0,0,0-.087-.007c-.262,0-.456.119-.708.438l.078-.408h-.738l-.5,2.692h.815c.291-1.645.417-1.934.806-1.934a.921.921,0,0,1,.1.007l.1.02.291-.761" transform="translate(-529.004 -657.337)" fill="#fff"/>
        <path id="path650" d="M522.526,663.5c0,.339.194.574.631.75.33.134.379.174.379.3,0,.167-.146.243-.466.243a2.627,2.627,0,0,1-.738-.106l-.116.621.039.006.146.026a2.03,2.03,0,0,0,.223.024c.194.015.34.022.446.022.873,0,1.272-.284,1.272-.9,0-.37-.165-.586-.582-.749-.34-.137-.379-.167-.379-.293,0-.144.136-.219.4-.219a5.346,5.346,0,0,1,.592.04l.116-.623a6.414,6.414,0,0,0-.728-.053c-.912,0-1.233.414-1.233.911" transform="translate(-510.956 -657.191)" fill="#fff"/>
        <path id="path652" d="M494.209,664.147a1.505,1.505,0,0,0-.184-.011c-.456,0-.689.138-.689.41a.262.262,0,0,0,.291.275c.33,0,.563-.276.583-.673Zm.592,1.2h-.68l.019-.278a1.1,1.1,0,0,1-.854.325.7.7,0,0,1-.738-.735c0-.655.524-1.038,1.427-1.038.087,0,.2.008.33.021a.8.8,0,0,0,.029-.175c0-.178-.146-.244-.524-.244a2.888,2.888,0,0,0-.67.074l-.116.029-.068.017.107-.606a3.676,3.676,0,0,1,.971-.142c.7,0,1.068.273,1.068.789a3.009,3.009,0,0,1-.058.533l-.175.956-.029.171-.019.137-.01.093-.009.073" transform="translate(-486.444 -657.192)" fill="#fff"/>
        <path id="path654" d="M509.867,663.655v-.138c0-.219-.136-.346-.379-.346-.262,0-.447.171-.524.483Zm.427,1.6a3.15,3.15,0,0,1-.825.109c-.912,0-1.388-.414-1.388-1.207a1.475,1.475,0,0,1,1.417-1.6.973.973,0,0,1,1.1.977,2.65,2.65,0,0,1-.1.665h-1.611a.305.305,0,0,0-.01.085c0,.312.242.471.709.471a2.159,2.159,0,0,0,.844-.171l-.135.674" transform="translate(-499.277 -657.161)" fill="#fff"/>
        <path id="path656" d="M556.257,663.7c0-.281-.117-.547-.446-.547-.417,0-.67.49-.67.923,0,.366.175.611.466.606a.794.794,0,0,0,.621-.659A1.667,1.667,0,0,0,556.257,663.7Zm.845.345a1.433,1.433,0,0,1-1.582,1.293,1.153,1.153,0,0,1-1.291-1.241,1.511,1.511,0,0,1,1.6-1.6,1.173,1.173,0,0,1,1.291,1.214,1.869,1.869,0,0,1-.019.334" transform="translate(-537.406 -657.111)" fill="#fff"/>
      </g>
      <g id="layer1-3" data-name="layer1" transform="translate(-7377.789 2234.222)">
        <path id="path3078" d="M55.5,1002.345H67.42v6.435l-.59.922.59.821v3.743H55.5V1008.2l.369-.424-.369-.406Z" transform="translate(-55.5 -1002.345)" fill="#016fd0"/>
        <path id="path3082" d="M249.14,1542.706v-1.871h1.982l.213.277.22-.277h7.193v1.743a.831.831,0,0,1-.406.129h-3.983l-.24-.295v.295h-.785v-.5a.66.66,0,0,1-.339.07h-.267v.433h-1.189l-.212-.283-.216.283Z" transform="translate(-246.826 -1534.4)" fill="#fff"/>
        <path id="path3080" d="M55.5,1336.664l.447-1.042h.773l.254.583v-.583h.961l.151.422.146-.422h4.312v.212a.93.93,0,0,1,.6-.212l1.4,0,.249.576v-.581h.8l.221.331v-.331h.811v1.871h-.811l-.212-.332v.332H64.423l-.119-.3h-.318l-.117.3h-.8a.792.792,0,0,1-.525-.208v.208H61.336l-.24-.3v.3H56.605l-.119-.3H56.17l-.118.3H55.5Z" transform="translate(-55.5 -1331.64)" fill="#fff"/>
        <path id="path3046" d="M56.3,1354.929l-.6,1.4h.392l.111-.281h.646l.111.281h.4l-.6-1.4Zm.223.326.2.49h-.395Z" transform="translate(-55.691 -1350.715)" fill="#016fd0"/>
        <path id="path3048" d="M198.223,1356.311v-1.4l.558,0,.324.9.317-.906h.553v1.4h-.35v-1.032l-.371,1.032h-.307l-.372-1.032v1.032Z" transform="translate(-196.517 -1350.696)" fill="#016fd0"/>
        <path id="path3050" d="M364.861,1356.311v-1.4H366v.314h-.789v.24h.771v.295h-.771v.249H366v.3Z" transform="translate(-361.164 -1350.696)" fill="#016fd0"/>
        <path id="path3052" d="M477.5,1354.929v1.4h.35v-.5h.148l.42.5h.428l-.461-.516a.426.426,0,0,0,.384-.43.453.453,0,0,0-.49-.455Zm.35.313h.4a.161.161,0,0,1,.166.147.158.158,0,0,1-.161.148h-.406Z" transform="translate(-472.454 -1350.715)" fill="#016fd0"/>
        <path id="path3054" d="M596.044,1356.311h-.358v-1.4h.358Z" transform="translate(-589.232 -1350.696)" fill="#016fd0"/>
        <path id="path3056" d="M640.57,1356.311h-.077a.618.618,0,0,1-.6-.695.642.642,0,0,1,.7-.707h.387v.332h-.4a.337.337,0,0,0-.327.378.343.343,0,0,0,.378.385h.092Z" transform="translate(-632.909 -1350.696)" fill="#016fd0"/>
        <path id="path3058" d="M710.554,1354.929l-.6,1.4h.393l.111-.281h.646l.111.281h.4l-.6-1.4Zm.223.326.2.49h-.395Z" transform="translate(-702.131 -1350.715)" fill="#016fd0"/>
        <path id="path3060" d="M852.433,1356.311v-1.4h.445l.569.88v-.88h.35v1.4h-.431l-.583-.9v.9Z" transform="translate(-842.91 -1350.696)" fill="#016fd0"/>
        <path id="path3062" d="M269.2,1561.523v-1.4h1.143v.313h-.789v.24h.771v.3h-.771v.249h.789v.3Z" transform="translate(-266.645 -1553.456)" fill="#016fd0"/>
        <path id="path3064" d="M737.947,1561.523v-1.4h1.143v.313H738.3v.24h.767v.3H738.3v.249h.789v.3Z" transform="translate(-729.791 -1553.456)" fill="#016fd0"/>
        <path id="path3066" d="M367.478,1561.523l.557-.692-.57-.71h.441l.339.439.341-.439h.424l-.562.7.558.7h-.441l-.33-.432-.322.432Z" transform="translate(-363.737 -1553.456)" fill="#016fd0"/>
        <path id="path3068" d="M499.869,1560.141v1.4h.36v-.443h.369a.484.484,0,0,0,.549-.487.461.461,0,0,0-.5-.471Zm.36.317h.388a.158.158,0,0,1,.173.161.162.162,0,0,1-.174.161h-.387Z" transform="translate(-494.559 -1553.476)" fill="#016fd0"/>
        <path id="path3072" d="M619.448,1560.121v1.4h.35v-.5h.148l.42.5h.428l-.461-.516a.427.427,0,0,0,.384-.43.454.454,0,0,0-.49-.455Zm.35.314h.4a.161.161,0,0,1,.166.147.158.158,0,0,1-.161.147H619.8Z" transform="translate(-612.709 -1553.456)" fill="#016fd0"/>
        <path id="path3074" d="M843.51,1561.523v-.3h.7c.1,0,.149-.056.149-.117s-.045-.118-.149-.118h-.317a.392.392,0,0,1-.429-.42c0-.225.141-.442.55-.442h.682l-.147.316h-.59c-.113,0-.147.059-.147.115a.122.122,0,0,0,.129.122h.332a.384.384,0,0,1,.44.4.42.42,0,0,1-.457.446Z" transform="translate(-834.049 -1553.456)" fill="#016fd0"/>
        <path id="path3076" d="M951.106,1561.523v-.3h.7c.1,0,.149-.056.149-.117s-.045-.118-.149-.118h-.317a.392.392,0,0,1-.429-.42c0-.225.141-.442.55-.442h.682l-.148.316h-.59c-.113,0-.148.059-.148.115a.122.122,0,0,0,.129.122h.332a.384.384,0,0,1,.44.4.42.42,0,0,1-.457.446Z" transform="translate(-940.36 -1553.456)" fill="#016fd0"/>
      </g>
      <path id="Tracé_1465" data-name="Tracé 1465" d="M221.4,892.126H277.2a2.41,2.41,0,0,1,2.409,2.409v22.647a2.409,2.409,0,0,1-2.409,2.409H173.626a2.409,2.409,0,0,1-2.409-2.409V894.535a2.41,2.41,0,0,1,2.409-2.409h2.063" transform="translate(-7638.217 1333.52)" fill="none" stroke="#b3b3b3" stroke-miterlimit="10" stroke-width="0.8" style="isolation: isolate"/>
    </g>
  </g>
</svg>
